<?xml version="1.0" encoding="iso-8859-1"?>
<!-- Uploaded to: SVG Repo, www.svgrepo.com, Generator: SVG Repo Mixer Tools -->
<!DOCTYPE svg PUBLIC "-//W3C//DTD SVG 1.1//EN" "http://www.w3.org/Graphics/SVG/1.1/DTD/svg11.dtd">
<svg fill="#000000" version="1.1" id="Capa_1" xmlns="http://www.w3.org/2000/svg" xmlns:xlink="http://www.w3.org/1999/xlink" 
	 width="800px" height="800px" viewBox="0 0 409.995 409.995"
	 xml:space="preserve">
<g>
	<g>
		<path d="M295.311,100.003c-1.168-1.168-3.26-2.562-6.587-2.562c-7.553,0-18.533,7.437-32.433,16.849
			c-11.075,7.5-23.569,15.961-34.893,20.778c-5.005-1.415-10.175-2.132-15.396-2.132c-15.042,0-29.177,5.853-39.803,16.479
			c-13.836,13.838-19.479,34.115-14.863,53.162c-2.838,11.307-13.038,25.552-22.065,38.159
			c-12.836,17.928-22.976,32.088-14.882,40.181c1.145,1.146,3.198,2.514,6.468,2.514c7.167,0,16.998-6.441,32.443-16.947
			c13.353-9.083,28.439-19.346,40.233-22.33c4.124,0.935,8.353,1.41,12.587,1.41c15.036,0,29.161-5.843,39.773-16.455
			c14.696-14.699,20.04-35.961,14.141-55.852c4.703-10.818,13.148-22.652,20.638-33.146
			C293.409,122.263,303.469,108.166,295.311,100.003z M251.337,171.385l-0.604,1.486l0.5,1.525
			c5.639,17.19,1.224,35.784-11.52,48.529c-8.962,8.962-20.893,13.896-33.592,13.896c-3.888,0-7.77-0.474-11.54-1.404l-0.995-0.248
			l-1.003,0.222c-13.56,3.02-29.838,14.094-44.199,23.864c-10.635,7.234-22.688,15.434-27.526,15.434
			c-0.144,0-0.247-0.011-0.299-0.011c-0.019,0-0.031,0-0.037,0.005c-2.652-3.004,9.377-19.804,15.859-28.858
			c9.78-13.659,20.866-29.142,23.727-42.366l0.222-1.025l-0.268-1.014c-4.307-16.358,0.415-33.915,12.32-45.825
			c8.976-8.974,20.915-13.917,33.621-13.917c4.869,0,9.69,0.738,14.326,2.191l1.487,0.467l1.448-0.582
			c12.557-5.041,26.036-14.17,37.928-22.224c11.141-7.545,22.66-15.348,27.53-15.348c0.277,0,0.412,0.033,0.423,0.021
			c2.854,2.981-8.69,19.156-15.592,28.829C265.459,146.379,256.282,159.24,251.337,171.385z"/>
		<path d="M80.685,314.632c34.24,34.242,79.219,51.362,124.197,51.362c44.979,0,89.956-17.12,124.198-51.362
			c57.128-57.126,68.013-145.341,26.476-214.52c-1.241-2.069-3.928-2.74-5.998-1.497c-2.072,1.244-2.739,3.927-1.496,6
			c39.469,65.73,29.12,149.552-25.162,203.836c-65.075,65.075-170.958,65.073-236.033,0c-65.073-65.074-65.073-170.958,0-236.032
			C141.15,18.133,224.971,7.787,290.703,47.256c2.071,1.245,4.754,0.574,5.997-1.497s0.572-4.756-1.495-5.998
			C226.024-1.777,137.811,9.107,80.685,66.237C12.202,134.719,12.202,246.148,80.685,314.632z"/>
		<path d="M380.725,85.027c-1.241-2.069-3.928-2.738-5.999-1.497c-2.07,1.243-2.74,3.929-1.497,5.999
			c46.407,77.285,34.24,175.84-29.586,239.664c-76.513,76.515-201.006,76.513-277.52,0c-76.512-76.514-76.512-201.006,0-277.519
			c9.002-9.002,18.873-17.138,29.338-24.183c2.002-1.348,2.534-4.063,1.186-6.067c-1.347-2.002-4.064-2.536-6.068-1.184
			c-10.932,7.358-21.24,15.854-30.637,25.253c-79.922,79.92-79.922,209.962,0,289.884c39.96,39.96,92.451,59.94,144.941,59.94
			c52.495,0,104.983-19.98,144.945-59.94C416.495,268.707,429.198,165.76,380.725,85.027z"/>
	</g>
</g>
</svg>